# xmcd
# 
# Track frame offsets:
#     150
#     20080
#     45140
#     60352
#     70412
#     85190
#     99180
#     115697
#     132375
#     160492
# 
# Disc length: 2416
# 
# Revision: 3
# Processed by: cddbd v1.5.2PL0 Copyright (c) Steve Scherf et al.
# Submitted via: fre:ac v1.0.27
# 
DISCID=78096e0a
DTITLE=S.E.N.S.(神思者) - 輝く季節の中で
DYEAR=1995
DGENRE=New Age
TTITLE0=ペール・ブルー・ストーリー~5イヤーズ・アフター
TTITLE1=輝く季節の中で
TTITLE2=雨
TTITLE3=ハイ・ムーン
TTITLE4=レクイエム
TTITLE5=ペール・ブルー・ストーリー~ピアノ・ソロ
TTITLE6=ショット
TTITLE7=ラストレッスン
TTITLE8=風のワルツ
TTITLE9=プライム・シーズン
EXTD=
EXTT0=
EXTT1=
EXTT2=
EXTT3=
EXTT4=
EXTT5=
EXTT6=
EXTT7=
EXTT8=
EXTT9=
PLAYORDER=
